{"title":"Nasty.Baby.2015.LIMITED.720p.BluRay.X264-DEFLATE2","uid":15101760,"size":4697374254,"categoryP":"video","categoryS":"movies","magnet":"?xt=urn:btih:900ba89ae13788f242e60bfa9b87de2e396a1d7c&amp;dn=Nasty.Baby.2015.LIMITED.720p.BluRay.X264-DEFLATE2&amp;tr=udp%3A%2F%2Ftracker.leechers-paradise.org%3A6969&amp;tr=udp%3A%2F%2Fzer0day.ch%3A1337&amp;tr=udp%3A%2F%2Fopen.demonii.com%3A1337&amp;tr=udp%3A%2F%2Ftracker.coppersurfer.tk%3A6969&amp;tr=udp%3A%2F%2Fexodus.desync.com%3A6969","seeders":3,"leechers":1,"uploader":"Aaaameida","files":3,"time":1466964075,"description":"A close-knit trio navigates the idea of creating life, while at the same time being confronted with a brutal scenario that causes them to take a life.\r\n\r\nLanguage: English \r\n\r\nSubtitles: English and Brazilian Portuguese\r\n \nhttp://www.imdb.com/title/tt3121332\r\n\r\nGeneral\r\nUnique ID : 32977703633988715247946684913848971833 (0x18CF465240CAFE03A6619107E28C7239)\r\nComplete name : Nasty.Baby.2015.LIMITED.720p.BluRay.X264-DEFLATE.mkv\r\nFormat : Matroska\r\nFormat version : Version 4 / Version 2\r\nFile size : 4.37 GiB\r\nDuration : 1h 36mn\r\nOverall bit rate : 6 462 Kbps\r\nEncoded date : UTC 2016-02-19 10:00:45\r\nWriting application : mkvmerge v8.8.0 ('Wind at my back') 64bit\r\nWriting library : libebml v1.3.3 + libmatroska v1.4.4\r\n\r\nVideo\r\nID : 1\r\nFormat : AVC\r\nFormat/Info : Advanced Video Codec\r\nFormat profile :   \r\nFormat settings, CABAC : Yes\r\nFormat settings, ReFrames : 9 frames\r\nCodec ID : V_MPEG4/ISO/AVC\r\nDuration : 1h 36mn\r\nBit rate : 4 952 Kbps\r\nWidth : 1 280 pixels\r\nHeight : 696 pixels\r\nDisplay aspect ratio : 1.85:1\r\nFrame rate mode : Constant\r\nFrame rate : 25.000 fps\r\nColor space : YUV\r\nChroma subsampling : 4:2:0\r\nBit depth : 8 bits\r\nScan type : Progressive\r\nBits/(Pixel*Frame) : 0.222\r\nStream size : 3.27 GiB (75%)\r\nTitle : X264-720\r\nWriting library : x264 core 148 r2665 a01e339\r\nEncoding settings : cabac=1 / ref=9 / deblock=1:-3:-3 / analyse=0x3:0x113 / me=umh / subme=10 / psy=1 / psy_rd=1.05:0.00 / mixed_ref=1 / me_range=36 / chroma_me=1 / trellis=2 / 8x8dct=1 / cqm=0 / deadzone=6,6 / fast_pskip=0 / chroma_qp_offset=-2 / threads=12 / lookahead_threads=2 / sliced_threads=0 / nr=0 / decimate=0 / interlaced=0 / bluray_compat=0 / constrained_intra=0 / bframes=9 / b_pyramid=2 / b_adapt=2 / b_bias=0 / direct=3 / weightb=1 / open_gop=0 / weightp=2 / keyint=250 / keyint_min=25 / scenecut=40 / intra_refresh=0 / rc=2pass / mbtree=0 / bitrate=4952 / ratetol=1.0 / qcomp=0.80 / qpmin=0 / qpmax=69 / qpstep=4 / cplxblur=20.0 / qblur=0.5 / ip_ratio=1.10 / pb_ratio=1.10 / aq=3:0.70\r\nLanguage : English\r\nDefault : Yes\r\nForced : No\r\n\r\nAudio\r\nID : 2\r\nFormat : DTS\r\nFormat/Info : Digital Theater Systems\r\nMode : 16\r\nFormat settings, Endianness : Big\r\nCodec ID : A_DTS\r\nDuration : 1h 36mn\r\nBit rate mode : Constant\r\nBit rate : 1 509 Kbps\r\nChannel(s) : 6 channels\r\nChannel positions : Front: L C R, Side: L R, LFE\r\nSampling rate : 48.0 KHz\r\nBit depth : 24 bits\r\nCompression mode : Lossy\r\nStream size : 1.02 GiB (23%)\r\nTitle : DTS 5.1\r\nLanguage : English\r\nDefault : Yes\r\nForced : No","torrent":{"xt":"urn:btih:900ba89ae13788f242e60bfa9b87de2e396a1d7c","amp;dn":"Nasty.Baby.2015.LIMITED.720p.BluRay.X264-DEFLATE2","amp;tr":["udp%3A%2F%2Ftracker.leechers-paradise.org%3A6969","udp%3A%2F%2Fzer0day.ch%3A1337","udp%3A%2F%2Fopen.demonii.com%3A1337","udp%3A%2F%2Ftracker.coppersurfer.tk%3A6969","udp%3A%2F%2Fexodus.desync.com%3A6969"],"infoHash":"900ba89ae13788f242e60bfa9b87de2e396a1d7c","infoHashBuffer":{"type":"Buffer","data":[144,11,168,154,225,55,136,242,66,230,11,250,155,135,222,46,57,106,29,124]},"announce":[],"urlList":[]}}